<svg xmlns="http://www.w3.org/2000/svg" xmlns:xlink="http://www.w3.org/1999/xlink" width="500" zoomAndPan="magnify" viewBox="0 0 375 374.999991" height="500" preserveAspectRatio="xMidYMid meet" version="1.0"><defs><g/></defs><rect x="-37.5" width="450" fill="#ffffff" y="-37.499999" height="449.999989" fill-opacity="1"/><rect x="-37.5" width="450" fill="#1c0c5b" y="-37.499999" height="449.999989" fill-opacity="1"/><rect x="-37.5" width="450" fill="#ffffff" y="-37.499999" height="449.999989" fill-opacity="1"/><rect x="-37.5" width="450" fill="#1c0c5b" y="-37.499999" height="449.999989" fill-opacity="1"/><g fill="#c996cc" fill-opacity="1"><g transform="translate(71.782742, 240.348554)"><g><path d="M 22.359375 -170.171875 L 90.1875 -170.171875 C 111.582031 -170.171875 128.15625 -165.101562 139.90625 -154.96875 C 151.65625 -144.84375 157.53125 -130.539062 157.53125 -112.0625 C 157.53125 -92.78125 151.65625 -77.832031 139.90625 -67.21875 C 128.15625 -56.601562 111.582031 -51.296875 90.1875 -51.296875 L 51.046875 -51.296875 L 51.046875 0 L 22.359375 0 Z M 51.046875 -144.390625 L 51.046875 -77.0625 L 88.96875 -77.0625 C 116.363281 -77.0625 130.0625 -88.488281 130.0625 -111.34375 C 130.0625 -133.375 116.363281 -144.390625 88.96875 -144.390625 Z M 51.046875 -144.390625 "/></g></g></g><g fill="#c996cc" fill-opacity="1"><g transform="translate(301.405782, 135.019788)"><g><path d="M -136.25 144.265625 L -51 144.265625 L -51 95.203125 L -128.234375 95.203125 L -128.234375 69.703125 L -51 69.703125 L -51 0 L -22.34375 0 L -22.34375 170 L -136.484375 170 Z M -136.25 144.265625 "/></g></g></g></svg>